<?xml version="1.0" standalone="no"?>
<!DOCTYPE svg PUBLIC "-//W3C//DTD SVG 20010904//EN"
 "http://www.w3.org/TR/2001/REC-SVG-20010904/DTD/svg10.dtd">
<svg version="1.0" xmlns="http://www.w3.org/2000/svg"
 width="80pX" height="80PX" viewBox="0 0 512.000000 512.000000"
 preserveAspectRatio="xMidYMid meet">
<metadata>
Created by potrace 1.16, written by Peter Selinger 2001-2019
</metadata>
<g transform="translate(0.000000,512.000000) scale(0.100000,-0.100000)"
fill="#A10769" stroke="none">
<path d="M2488 4073 c39 -2 105 -2 145 0 39 1 7 3 -73 3 -80 0 -112 -2 -72 -3z"/>
<path d="M2363 4063 c9 -2 23 -2 30 0 6 3 -1 5 -18 5 -16 0 -22 -2 -12 -5z"/>
<path d="M2743 4063 c9 -2 23 -2 30 0 6 3 -1 5 -18 5 -16 0 -22 -2 -12 -5z"/>
<path d="M2288 4053 c6 -2 18 -2 25 0 6 3 1 5 -13 5 -14 0 -19 -2 -12 -5z"/>
<path d="M2815 4050 c19 -8 73 -14 64 -6 -2 2 -22 6 -44 9 -28 5 -34 4 -20 -3z"/>
<path d="M2160 4024 c-169 -49 -417 -188 -641 -360 -106 -82 -305 -282 -357
-359 -27 -41 -28 -44 -5 -16 77 94 230 234 246 225 6 -4 9 -4 5 1 -8 8 25 37
55 48 10 4 16 11 12 16 -5 9 33 37 45 33 3 -1 5 1 5 6 0 15 17 32 29 30 6 -2
12 1 13 5 8 32 275 225 374 270 121 55 159 70 227 88 81 22 120 39 92 38 -8 0
-53 -11 -100 -25z"/>
<path d="M2898 4033 c7 -3 16 -2 19 1 4 3 -2 6 -13 5 -11 0 -14 -3 -6 -6z"/>
<path d="M2301 3810 c-238 -23 -464 -102 -653 -226 -89 -60 -232 -212 -289
-310 -105 -180 -148 -331 -154 -539 -2 -77 -2 -126 1 -110 2 17 9 64 15 105
11 77 51 252 70 305 57 157 98 227 204 345 74 82 177 176 213 193 12 5 22 13
22 17 0 26 342 153 470 174 266 44 569 27 855 -48 99 -26 129 -22 132 15 1 14
0 17 -3 7 -9 -30 -40 -29 -181 6 -76 20 -181 42 -233 51 -121 19 -348 26 -469
15z"/>
<path d="M2215 3607 c-197 -104 -310 -206 -428 -389 -56 -86 -83 -119 -102
-124 -39 -10 -31 -28 10 -21 19 3 52 19 72 36 20 17 41 27 46 24 6 -3 7 -1 3
5 -4 7 -2 12 3 12 6 0 10 3 10 8 -3 20 2 32 13 26 7 -5 8 -3 3 5 -4 8 1 25 14
42 11 15 21 31 21 34 0 12 79 111 116 146 22 20 62 54 90 75 28 22 73 57 101
79 28 22 68 50 89 62 69 39 22 24 -61 -20z"/>
<path d="M2539 3500 c-176 -37 -316 -110 -446 -234 -187 -177 -306 -411 -348
-683 -7 -43 -7 -43 24 -43 24 0 32 5 35 23 3 12 11 47 17 77 7 30 13 57 14 60
0 3 3 10 6 15 4 6 9 23 13 40 8 32 66 157 77 165 3 3 10 16 14 30 4 14 18 39
30 55 13 17 30 44 38 60 24 48 162 190 228 235 75 51 214 121 299 150 89 31
250 38 340 16 74 -19 187 -60 243 -88 20 -10 37 -16 37 -13 0 9 -144 78 -214
101 -86 30 -214 54 -275 53 -25 0 -85 -9 -132 -19z"/>
<path d="M2742 3330 c-41 -27 -112 -82 -159 -122 -47 -40 -108 -92 -135 -116
-28 -23 -61 -45 -74 -48 -13 -3 -21 -10 -18 -15 9 -16 68 -10 98 10 17 11 34
17 39 14 6 -3 7 -1 3 5 -4 7 -2 13 3 13 6 1 17 2 24 3 6 1 11 8 9 15 -2 8 3
11 12 8 10 -4 13 -1 10 7 -3 8 50 63 130 136 114 103 150 141 134 140 -2 0
-36 -23 -76 -50z"/>
<path d="M3285 3270 c10 -11 20 -20 23 -20 3 0 -3 9 -13 20 -10 11 -20 20 -23
20 -3 0 3 -9 13 -20z"/>
<path d="M1110 3230 c-6 -11 -8 -20 -6 -20 3 0 10 9 16 20 6 11 8 20 6 20 -3
0 -10 -9 -16 -20z"/>
<path d="M1070 3160 c-6 -11 -8 -20 -6 -20 3 0 10 9 16 20 6 11 8 20 6 20 -3
0 -10 -9 -16 -20z"/>
<path d="M2686 3124 c-125 -77 -237 -167 -334 -268 -69 -72 -82 -89 -72 -101
23 -28 52 -15 124 53 82 79 195 171 281 229 33 23 73 54 88 71 28 29 33 62 12
68 -5 2 -50 -21 -99 -52z"/>
<path d="M1367 2980 c-105 -345 -82 -820 55 -1147 18 -42 34 -71 36 -65 2 6
-7 30 -19 53 -27 54 -56 154 -70 239 -57 368 -52 574 18 875 11 44 16 91 13
105 -6 20 -12 10 -33 -60z"/>
<path d="M2092 2864 c-20 -76 -43 -202 -57 -312 -11 -82 -30 -92 -179 -92
-134 -1 -183 -14 -150 -41 13 -11 51 -14 163 -14 130 1 151 3 187 22 l41 22
12 93 c16 126 24 364 13 384 -7 12 -14 -3 -30 -62z"/>
<path d="M1016 2845 c-35 -140 -61 -435 -38 -435 4 0 8 51 9 114 2 77 11 155
28 240 29 138 29 193 1 81z"/>
<path d="M2696 2799 c-73 -12 -155 -45 -210 -86 -37 -27 -45 -37 -35 -44 26
-16 71 -9 163 25 213 80 484 63 628 -39 l53 -37 -50 52 c-65 67 -114 96 -210
120 -83 21 -242 26 -339 9z"/>
<path d="M3841 2764 c0 -11 3 -14 6 -6 3 7 2 16 -1 19 -3 4 -6 -2 -5 -13z"/>
<path d="M2213 2743 c0 -10 -4 -60 -8 -110 l-8 -93 44 0 c29 0 39 3 30 9 -9 6
-16 40 -22 96 -4 51 -13 94 -21 101 -12 12 -14 11 -15 -3z"/>
<path d="M3854 2717 c29 -116 25 -307 -9 -454 -21 -92 -87 -254 -140 -347
-130 -228 -331 -424 -537 -521 -98 -47 -154 -56 -348 -56 -231 -1 -415 31
-596 105 -46 19 -84 32 -84 30 0 -10 105 -54 205 -87 198 -65 230 -70 475 -74
256 -5 340 6 419 55 25 16 68 41 95 57 27 15 76 52 110 82 145 131 185 176
250 286 97 163 89 154 131 134 49 -23 70 -21 94 9 16 20 21 40 20 83 l-1 56
-9 -44 c-10 -53 -31 -87 -59 -96 -29 -9 -63 22 -55 50 4 11 7 26 7 33 1 6 5
12 10 12 5 0 7 4 4 9 -3 5 5 38 18 73 14 36 28 91 31 124 4 32 9 63 12 67 9
14 5 232 -5 293 -13 75 -31 144 -38 144 -4 0 -4 -10 0 -23z"/>
<path d="M3443 2499 c29 -109 29 -261 -2 -359 -45 -145 -121 -270 -235 -385
-75 -76 -213 -183 -280 -217 -69 -35 -25 -31 69 7 49 20 119 56 157 81 81 54
215 194 253 266 96 179 109 220 109 348 0 88 -4 120 -29 197 -16 50 -36 101
-45 114 -15 19 -15 12 3 -52z"/>
<path d="M2728 2531 c-75 -11 -122 -42 -158 -105 -40 -69 -39 -86 3 -86 28 0
38 7 58 37 14 22 44 47 74 63 45 23 62 25 193 28 125 3 146 1 163 -14 33 -30
24 13 -10 47 -26 26 -37 29 -89 29 -32 0 -86 2 -118 4 -32 3 -84 1 -116 -3z"/>
<path d="M2471 2505 c-2 -40 -19 -45 -154 -45 l-130 0 6 -92 c3 -51 13 -115
21 -141 19 -59 62 -141 88 -164 19 -17 19 -16 0 27 -51 120 -67 263 -33 294
21 20 126 29 174 15 25 -7 29 -4 43 29 13 33 14 40 0 67 -12 25 -15 26 -15 10z"/>
<path d="M3158 2375 c4 -143 -7 -210 -49 -294 -56 -111 -193 -212 -327 -240
-161 -34 -372 13 -487 109 -22 17 -13 6 20 -25 98 -93 214 -141 366 -152 263
-18 455 105 525 337 29 96 9 310 -34 368 -16 21 -17 16 -14 -103z"/>
<path d="M981 2352 c-3 -59 91 -424 105 -409 2 2 -7 37 -20 78 -26 80 -49 173
-70 284 -8 39 -14 59 -15 47z"/>
<path d="M1481 2304 c0 -11 3 -14 6 -6 3 7 2 16 -1 19 -3 4 -6 -2 -5 -13z"/>
<path d="M2505 2261 c44 -50 68 -56 245 -53 190 3 274 -4 295 -25 26 -26 18
12 -9 44 l-24 28 -249 5 c-136 3 -255 9 -263 14 -8 5 -6 -1 5 -13z"/>
<path d="M1490 2262 c0 -32 35 -170 67 -262 34 -102 135 -315 168 -355 8 -11
-2 16 -23 60 -82 167 -115 254 -168 439 -32 111 -44 145 -44 118z"/>
<path d="M2436 2212 c10 -18 32 -45 48 -60 24 -22 23 -18 -9 23 -53 68 -61 76
-39 37z"/>
<path d="M3922 2120 c0 -19 2 -27 5 -17 2 9 2 25 0 35 -3 9 -5 1 -5 -18z"/>
<path d="M2456 2073 c67 -65 133 -90 277 -107 121 -13 161 -6 204 36 21 22 22
26 8 43 -14 20 -14 20 -15 -2 0 -23 -1 -23 -150 -23 -202 0 -273 16 -346 79
-16 14 -7 3 22 -26z"/>
<path d="M4200 1969 c0 -5 5 -7 10 -4 6 3 10 8 10 11 0 2 -4 4 -10 4 -5 0 -10
-5 -10 -11z"/>
<path d="M1090 1925 c0 -5 5 -17 10 -25 5 -8 10 -10 10 -5 0 6 -5 17 -10 25
-5 8 -10 11 -10 5z"/>
<path d="M4106 1743 c-181 -374 -557 -721 -941 -869 -33 -13 -51 -23 -39 -24
24 0 115 29 129 41 5 5 15 9 22 9 40 0 353 168 353 190 0 6 6 10 14 10 8 0 36
19 62 43 67 61 227 224 224 228 -2 2 17 36 42 74 25 39 56 90 69 115 13 25 32
54 42 64 9 11 17 28 17 38 0 18 24 89 41 121 5 9 6 17 1 17 -4 0 -20 -26 -36
-57z"/>
<path d="M1180 1740 c6 -11 13 -20 16 -20 2 0 0 9 -6 20 -6 11 -13 20 -16 20
-2 0 0 -9 6 -20z"/>
<path d="M1237 1649 c10 -17 24 -36 32 -42 8 -7 2 7 -14 31 -32 49 -45 57 -18
11z"/>
<path d="M3651 1599 c-169 -162 -440 -324 -616 -369 -188 -47 -338 -51 -585
-15 -27 4 -30 3 -14 -4 42 -19 242 -42 349 -40 200 3 320 33 493 125 235 126
430 278 451 352 5 18 9 32 8 32 -1 -1 -40 -37 -86 -81z"/>
<path d="M1760 1586 c0 -2 8 -10 18 -17 15 -13 16 -12 3 4 -13 16 -21 21 -21
13z"/>
<path d="M1310 1546 c0 -2 8 -10 18 -17 15 -13 16 -12 3 4 -13 16 -21 21 -21
13z"/>
<path d="M1650 1475 c13 -14 26 -25 28 -25 3 0 -5 11 -18 25 -13 14 -26 25
-28 25 -3 0 5 -11 18 -25z"/>
<path d="M1385 1460 c10 -11 20 -20 23 -20 3 0 -3 9 -13 20 -10 11 -20 20 -23
20 -3 0 3 -9 13 -20z"/>
<path d="M1710 1416 c0 -2 8 -10 18 -17 15 -13 16 -12 3 4 -13 16 -21 21 -21
13z"/>
<path d="M1490 1356 c0 -2 8 -10 18 -17 15 -13 16 -12 3 4 -13 16 -21 21 -21
13z"/>
<path d="M2388 1223 c7 -3 16 -2 19 1 4 3 -2 6 -13 5 -11 0 -14 -3 -6 -6z"/>
<path d="M3008 823 c7 -3 16 -2 19 1 4 3 -2 6 -13 5 -11 0 -14 -3 -6 -6z"/>
</g>
</svg>